<?xml version="1.0" encoding="UTF-8" standalone="no"?>
<!-- Created with Inkscape (http://www.inkscape.org/) -->

<svg
   width="400"
   height="100"
   viewBox="0 0 105.83333 26.458333"
   version="1.1"
   id="svg1"
   sodipodi:docname="logo.svg"
   inkscape:version="1.4.3 (0d15f75, 2025-12-25)"
   inkscape:export-filename="C:\Users\slack\Documents\GitHub\pop-star\img\popstar_favicon.svg"
   inkscape:export-xdpi="96"
   inkscape:export-ydpi="96"
   xmlns:inkscape="http://www.inkscape.org/namespaces/inkscape"
   xmlns:sodipodi="http://sodipodi.sourceforge.net/DTD/sodipodi-0.dtd"
   xmlns:xlink="http://www.w3.org/1999/xlink"
   xmlns="http://www.w3.org/2000/svg"
   xmlns:svg="http://www.w3.org/2000/svg">
  <sodipodi:namedview
     id="namedview1"
     pagecolor="#ffffff"
     bordercolor="#111111"
     borderopacity="1"
     inkscape:showpageshadow="0"
     inkscape:pageopacity="0"
     inkscape:pagecheckerboard="1"
     inkscape:deskcolor="#d1d1d1"
     showgrid="false"
     inkscape:zoom="2.84"
     inkscape:cx="200"
     inkscape:cy="45.950704"
     inkscape:window-width="1920"
     inkscape:window-height="1009"
     inkscape:window-x="-8"
     inkscape:window-y="-8"
     inkscape:window-maximized="1"
     inkscape:current-layer="svg1" />
  <defs
     id="defs1">
    <linearGradient
       id="linearGradient12"
       inkscape:collect="always">
      <stop
         style="stop-color:#ffffff;stop-opacity:1;"
         offset="0"
         id="stop12" />
      <stop
         style="stop-color:#ffffff;stop-opacity:0;"
         offset="1"
         id="stop13" />
    </linearGradient>
    <linearGradient
       id="linearGradient10"
       inkscape:collect="always">
      <stop
         style="stop-color:#ffffff;stop-opacity:1;"
         offset="0.00165563"
         id="stop10" />
      <stop
         style="stop-color:#000000;stop-opacity:0;"
         offset="1"
         id="stop11" />
    </linearGradient>
    <linearGradient
       inkscape:collect="always"
       xlink:href="#linearGradient10"
       id="linearGradient11"
       x1="59.491352"
       y1="3.1915963"
       x2="59.491352"
       y2="9.9577799"
       gradientUnits="userSpaceOnUse" />
    <linearGradient
       inkscape:collect="always"
       xlink:href="#linearGradient12"
       id="linearGradient13"
       x1="60.986275"
       y1="13.061043"
       x2="60.986275"
       y2="19.827227"
       gradientUnits="userSpaceOnUse" />
  </defs>
  <path
     id="path2"
     style="fill:#800000;fill-opacity:1;stroke:#550000;stroke-width:0.396875;stroke-dasharray:none;stroke-opacity:1"
     d="m 19.386158,24.909788 -6.773204,-6.193881 -7.9129733,4.6503 3.7976959,-8.355713 -6.8679423,-6.0886634 9.1203087,1.0297659 3.668352,-8.4133017 1.838965,8.9921442 9.135108,0.888957 -7.983766,4.527684 z" />
  <path
     style="font-size:11.8816px;font-family:'Comic Sans MS';-inkscape-font-specification:'Comic Sans MS';fill:#1a1a1a;stroke:#000000;stroke-width:0.243761;stroke-opacity:1"
     d="m 12.059263,7.9234809 h 0.289463 q 1.310208,0 1.72917,0.1066448 0.601781,0.1523499 1.058831,0.5865457 0.342786,0.3199347 0.540842,0.9064812 0.198053,0.5789294 0.198053,1.3559134 v 0.784601 h -0.75413 v -0.327553 q 0,-0.517988 -0.220908,-0.87601 -0.21329,-0.365639 -0.639868,-0.5560763 -0.556077,-0.24376 -1.234035,-0.24376 h -0.213289 v 6.3606003 q 0,0.921716 -0.243759,1.439706 -0.24376,0.51037 -0.837923,0.822689 -0.594164,0.304698 -1.294974,0.304698 -0.8303047,0 -1.3178236,-0.464666 -0.479902,-0.472284 -0.479902,-1.234032 0,-0.799837 0.5789286,-1.340678 0.5789292,-0.548459 1.51588,-0.548459 0.594165,0 1.325444,0.350403 z"
     id="text1"
     aria-label="♪" />
  <path
     style="fill:#ffffff;stroke:none;stroke-width:0.396875;stroke-opacity:1"
     d="m 8.9205116,17.07504 c 0,0 -0.00411,-0.744505 0.1981058,-1.029525 0.3188092,-0.449347 0.878356,-0.807375 1.4288066,-0.830949 0.456407,-0.01955 1.321276,0.286276 1.321276,0.286276 -2.0049696,-0.321195 -2.6359299,0.412399 -2.9481884,1.574198 z"
     id="path1"
     sodipodi:nodetypes="cascc" />
  <path
     style="fill:#ffffff;stroke:none;stroke-width:0.396875;stroke-opacity:1"
     d="m 12.248779,8.1131938 0.01692,1.1566096 c 0.0857,-0.5594686 0.275834,-1.0298653 0.868868,-1.1566096 -0.292628,-0.00527 -0.579267,-0.022516 -0.885788,0 z"
     id="path3"
     sodipodi:nodetypes="cccc" />
  <text
     xml:space="preserve"
     style="font-style:normal;font-variant:normal;font-weight:normal;font-stretch:normal;font-size:11.2889px;line-height:0em;font-family:'Bauhaus 93';-inkscape-font-specification:'Bauhaus 93, ';writing-mode:lr-tb;direction:ltr;fill:#800000;stroke:none;stroke-width:0.396875;stroke-opacity:1"
     x="40.261299"
     y="11.529881"
     id="text7"><tspan
       sodipodi:role="line"
       id="tspan7"
       style="fill:#800000;stroke-width:0.396875"
       x="40.261299"
       y="11.529881">BLOODY</tspan></text>
  <text
     xml:space="preserve"
     style="font-style:normal;font-variant:normal;font-weight:normal;font-stretch:normal;font-size:11.2889px;line-height:0em;font-family:'Bauhaus 93';-inkscape-font-specification:'Bauhaus 93, ';writing-mode:lr-tb;direction:ltr;fill:#000000;stroke:none;stroke-width:0.396875;stroke-opacity:1"
     x="40.261299"
     y="10.471548"
     id="text5"><tspan
       sodipodi:role="line"
       id="tspan5"
       style="stroke-width:0.396875"
       x="40.261299"
       y="10.471548">BLOODY</tspan></text>
  <text
     xml:space="preserve"
     style="font-style:normal;font-variant:normal;font-weight:normal;font-stretch:normal;font-size:11.2889px;line-height:0em;font-family:'Bauhaus 93';-inkscape-font-specification:'Bauhaus 93, ';writing-mode:lr-tb;direction:ltr;fill:#800000;stroke:none;stroke-width:0.396875;stroke-opacity:1"
     x="29.606298"
     y="21.188986"
     id="text8"><tspan
       sodipodi:role="line"
       id="tspan8"
       style="fill:#800000;stroke-width:0.396875"
       x="29.606298"
       y="21.188986">POP STARS</tspan></text>
  <text
     xml:space="preserve"
     style="font-style:normal;font-variant:normal;font-weight:normal;font-stretch:normal;font-size:11.2889px;line-height:0em;font-family:'Bauhaus 93';-inkscape-font-specification:'Bauhaus 93, ';writing-mode:lr-tb;direction:ltr;fill:#000000;stroke:none;stroke-width:0.396875;stroke-opacity:1"
     x="29.606298"
     y="20.130651"
     id="text6"><tspan
       sodipodi:role="line"
       id="tspan6"
       style="stroke-width:0.396875"
       x="29.606298"
       y="20.130651">POP STARS</tspan></text>
  <path
     id="text9"
     style="font-size:11.2889px;line-height:0em;font-family:'Bauhaus 93';-inkscape-font-specification:'Bauhaus 93, ';stroke-width:0.396875;fill:url(#linearGradient11);fill-opacity:1"
     d="m 54.433594,3.3066406 c -2.006289,0.118707 -3.548314,2.2400623 -3.023042,4.1869623 0.399536,1.9570523 2.69024,3.1678811 4.54005,2.4289279 C 57.915237,9.2637673 58.802171,6.678141 57.68404,4.9438381 57.014675,3.8268836 55.74068,3.1458486 54.433594,3.3066406 Z m 8.503906,0 C 60.929797,3.4252828 59.391954,5.5470424 59.916411,7.4936029 60.315347,9.4497102 62.605296,10.660545 64.454636,9.9229 66.417635,9.2643467 67.309886,6.6787622 66.189893,4.9438416 65.518573,3.8264709 64.247519,3.1454854 62.9375,3.3066406 Z M 41.544922,9.9414062 c 0.620775,-0.00579 1.467638,0.2145128 1.179687,-0.6999999 0,-1.6019532 0,-3.2039063 0,-4.8058594 0.707658,0.00376 1.866612,-0.1791602 2.019532,0.7832031 0.07227,0.4265468 -0.187084,0.8827022 -0.607422,1.0078125 -0.0097,0.5822873 -0.161702,1.1603415 0.564453,1.1816406 0.82579,0.4326743 0.345035,1.783118 -0.564453,1.6484375 -0.07414,0.5650786 -0.04795,1.0989534 0.631434,0.8320184 C 46.222396,9.7254759 46.517634,7.3779841 45.111328,6.9101562 44.243847,6.6929561 44.436243,6.357147 45.088395,5.9670563 46.013852,5.3584275 45.770455,3.6390587 44.572126,3.555294 43.573554,3.3917857 42.552457,3.5149081 41.544922,3.4765625 c 0,2.1549479 0,4.3098958 0,6.4648437 z m 6.291016,-2.1835937 c -0.108328,1.1041105 0.720146,2.2421018 1.896806,2.1775293 0.409542,0.077637 0.322887,-1.1243237 0.04851,-1.1912012 -1.034738,-0.3166826 -0.715068,-1.6113624 -0.767578,-2.4261718 0,-0.9471355 0,-1.8942709 0,-2.8414063 -0.62058,0.00533 -1.465733,-0.2139098 -1.177735,0.7 10e-7,1.19375 10e-7,2.3875 10e-7,3.58125 z m 20.951171,2.1835937 c 0.620776,-0.00579 1.467638,0.2145128 1.179688,-0.6999999 0,-1.5544271 0,-3.1088542 0,-4.6632813 1.190237,0.012986 2.801082,-0.2089649 3.492187,1.0214844 0.611712,1.1296548 0.08895,2.8305158 -1.263672,3.0976562 -0.483516,0.1037688 -1.035403,0.00793 -0.80664,0.7074219 -0.273441,0.8542195 0.660168,0.5500878 1.167895,0.4561908 1.7987,-0.3881399 2.773229,-2.4501891 2.260229,-4.1481761 C 74.42452,4.0654234 72.597878,3.381002 71.058203,3.4765625 c -0.757031,0 -1.514062,0 -2.271094,0 0,2.1549479 0,4.3098958 0,6.4648437 z m 9.115235,-3.9335937 c 0.198936,0.8782496 0.02596,1.8655771 0.08398,2.7851563 -0.0014,0.6175424 -0.205139,1.4374302 0.7,1.1484374 0.842321,0.2157588 0.349305,-0.9038201 0.479688,-1.4 0.05751,-0.8350963 -0.113596,-1.7367644 0.08203,-2.5316406 0.537109,-0.844401 1.074219,-1.6888021 1.611328,-2.5332031 -0.693772,-0.1243903 -1.225886,0.054527 -1.484211,0.747133 C 79.04473,4.460917 78.697368,5.7892334 78.379676,5.2145928 78.016332,4.6355357 77.653891,4.055913 77.291016,3.4765625 c -0.74861,-0.079111 -1.294623,-0.04746 -0.579901,0.6734488 0.397076,0.6192671 0.794152,1.2385341 1.191229,1.8578012 z M 54.748047,4.4472656 c 1.594752,-0.061868 2.69039,1.8529998 1.978151,3.237521 -0.554454,1.3808739 -2.582102,1.7335559 -3.55237,0.5945103 -1.174007,-1.1473753 -0.570502,-3.4220447 1.054046,-3.7703473 0.169465,-0.043646 0.345568,-0.059845 0.520173,-0.061684 z m 8.503906,0 c 1.596197,-0.062605 2.690249,1.8518952 1.980104,3.237521 -0.555167,1.379241 -2.583466,1.7349846 -3.552369,0.5945103 -1.17516,-1.1464959 -0.571269,-3.4205063 1.052092,-3.7703473 0.169494,-0.043014 0.345629,-0.059854 0.520173,-0.061684 z" />
  <path
     id="text10"
     style="font-size:11.2889px;line-height:0em;font-family:'Bauhaus 93';-inkscape-font-specification:'Bauhaus 93, ';stroke-width:0.396875;fill:url(#linearGradient13)"
     d="m 67.283203,12.960938 c -1.20644,-0.01764 -2.128689,1.103279 -2.046557,2.272125 -0.01008,1.456004 -0.0012,2.912362 -0.0042,4.368499 0.62058,-0.0053 1.465733,0.21391 1.177734,-0.7 0.01532,-0.558116 -0.216171,-1.363046 0.629297,-1.091015 0.07382,-0.523561 0.138465,-1.186627 -0.629297,-0.925781 0.09744,-0.881289 -0.320684,-2.108763 0.585938,-2.679688 0.692956,-0.360371 1.539108,0.219132 1.470703,0.994141 0.01437,1.467269 0.0014,2.934931 0.0059,4.402343 0.620776,-0.0058 1.467638,0.214513 1.179688,-0.7 -0.07213,-1.577 0.155052,-3.183769 -0.134766,-4.741406 -0.229498,-1.032715 -1.322417,-1.290397 -2.234375,-1.199218 z m -34.46875,0.002 c -1.188059,0.07901 -2.197447,1.142575 -2.074309,2.354208 -0.0091,1.428038 -0.0011,2.85633 -0.0038,4.284463 0.620776,-0.0058 1.467638,0.214513 1.179688,-0.7 0.0495,-1.381965 -0.09614,-2.785717 0.06641,-4.155468 0.259363,-1.109961 2.183576,-0.843329 2.03125,0.333984 0.0053,0.413766 -0.280652,0.802994 -0.675781,0.923828 0.0016,0.507189 -0.175416,1.278979 0.576171,0.923828 1.672815,-0.331833 1.74291,-2.849463 0.382813,-3.628906 -0.430738,-0.297779 -0.96911,-0.382528 -1.482422,-0.335937 z m 7.09375,0.002 c -2.015161,0.106351 -3.563363,2.23567 -3.038667,4.186962 0.40044,1.954869 2.684911,3.16904 4.535881,2.432084 1.964532,-0.6601 2.8574,-3.24337 1.738117,-4.980201 -0.663633,-1.111111 -1.934589,-1.795582 -3.235331,-1.638845 z m 7.755859,-0.002 c -1.188194,0.0787 -2.197843,1.142304 -2.074309,2.354208 -0.0091,1.428038 -0.0011,2.85633 -0.0038,4.284463 0.620775,-0.0058 1.467637,0.214513 1.179687,-0.7 0.0495,-1.381965 -0.09614,-2.785717 0.06641,-4.155468 0.259364,-1.109961 2.183576,-0.843329 2.03125,0.333984 0.0051,0.414101 -0.279011,0.80527 -0.675781,0.923828 0.0016,0.507189 -0.175416,1.278979 0.576172,0.923828 1.673077,-0.331963 1.74246,-2.849074 0.382812,-3.628906 -0.430738,-0.297779 -0.969109,-0.382528 -1.482422,-0.335937 z m 9.115235,-0.002 c -1.430458,0.12131 -2.235668,1.839356 -1.610783,3.081616 0.308976,0.681055 1.00903,1.588502 0.268986,2.250415 -0.197875,0.326833 -0.779904,0.221051 -0.910156,0.432031 -0.0732,0.598349 -0.0701,1.274632 0.727176,1.055873 1.445801,-0.03526 2.442987,-1.742193 1.751339,-3.021107 -0.383587,-0.678296 -0.987226,-1.612257 -0.285156,-2.306641 0.294325,-0.328599 0.887645,-0.236656 0.662109,-0.835937 0.03884,-0.63169 0.08465,-0.735833 -0.603515,-0.65625 z m 23.912109,0 c -1.435007,0.121233 -2.233054,1.839541 -1.6107,3.081586 0.270797,0.666013 0.972414,1.470217 0.354841,2.158648 -0.238916,0.292512 -0.624513,0.435296 -0.996094,0.423828 0.0031,0.541256 -0.192595,1.359572 0.62726,1.159968 1.4828,0.03762 2.562086,-1.705865 1.853209,-3.01739 -0.385782,-0.677658 -0.984801,-1.613591 -0.292969,-2.3125 0.294484,-0.329421 0.892979,-0.236445 0.666016,-0.83789 0.03717,-0.631112 0.08829,-0.736402 -0.601563,-0.65625 z m -21.792968,1.277343 c 0.53288,0.07207 1.350242,-0.140347 1.714843,0.1 0,1.754427 0,3.508854 0,5.263281 0.62058,-0.0053 1.465733,0.21391 1.177735,-0.7 0,-1.554427 0,-3.108854 0,-4.663281 0.538085,-0.06491 1.339141,0.133152 1.708984,-0.1 0.09717,-0.69769 0.05197,-1.253012 -0.8,-1.001562 -1.267187,0 -2.534375,0 -3.801562,0 0,0.367187 -10e-7,0.734375 0,1.101562 z m 13.167968,5.363281 c 0.620776,-0.0058 1.467638,0.214513 1.179688,-0.7 0,-1.600651 0,-3.201302 0,-4.801953 0.780853,3.66e-4 1.994827,-0.168704 2.248047,0.824219 0.139266,0.588158 -0.239231,1.257196 -0.859375,1.339844 -0.01835,0.747278 -0.07395,1.502509 0.367599,2.151583 0.303769,0.508349 0.33375,1.439159 1.130838,1.186307 1.011791,0.272042 0.306187,-0.602443 0.152779,-1.108285 -0.161282,-0.552132 -0.624397,-1.177096 -0.596632,-1.683189 1.035566,-0.587727 1.401755,-2.093945 0.56065,-2.995635 -0.999072,-1.04654 -2.580445,-0.564177 -3.857422,-0.677734 -0.677002,-0.06828 -0.16936,1.048088 -0.326172,1.5 0,1.654948 0,3.309896 0,4.964843 z M 40.207031,14.105469 c 1.594792,-0.05967 2.693149,1.856315 1.975748,3.241221 -0.554765,1.380274 -2.585353,1.728548 -3.55192,0.588857 -1.169717,-1.147345 -0.569269,-3.413051 1.049848,-3.765624 0.170545,-0.04787 0.349841,-0.06154 0.526324,-0.06445 z" />
</svg>
